<?xml version="1.0" standalone="no"?>
<!DOCTYPE svg PUBLIC "-//W3C//DTD SVG 20010904//EN"
 "http://www.w3.org/TR/2001/REC-SVG-20010904/DTD/svg10.dtd">
<svg version="1.0" xmlns="http://www.w3.org/2000/svg"
 width="256.000000pt" height="256.000000pt" viewBox="0 0 256.000000 256.000000"
 preserveAspectRatio="xMidYMid meet">
<metadata>
Created by potrace 1.11, written by Peter Selinger 2001-2013
</metadata>
<g transform="translate(0.000000,256.000000) scale(0.100000,-0.100000)"
fill="#000000" stroke="none">
<path d="M0 1280 l0 -1280 1280 0 1280 0 0 1280 0 1280 -1280 0 -1280 0 0
-1280z m390 905 c0 -12 -13 -15 -60 -15 l-60 0 0 -155 c0 -131 -2 -155 -15
-155 -13 0 -15 24 -15 155 l0 155 -55 0 c-42 0 -55 3 -55 15 0 13 21 15 130
15 109 0 130 -2 130 -15z m80 -60 l0 -75 95 0 95 0 0 75 c0 60 3 75 15 75 13
0 15 -26 15 -170 0 -144 -2 -170 -15 -170 -12 0 -15 16 -15 80 l0 80 -95 0
-95 0 0 -80 c0 -64 -3 -80 -15 -80 -13 0 -15 26 -15 170 0 144 2 170 15 170
12 0 15 -15 15 -75z m500 60 c0 -12 -16 -15 -85 -15 l-85 0 0 -60 0 -60 80 0
c64 0 80 -3 80 -15 0 -12 -16 -15 -80 -15 l-80 0 0 -65 0 -65 90 0 c73 0 90
-3 90 -15 0 -12 -18 -15 -105 -15 l-105 0 0 170 0 170 100 0 c82 0 100 -3 100
-15z m-776 -953 c22 -78 42 -142 46 -142 3 0 24 64 46 143 33 116 44 143 60
145 17 2 24 -15 58 -142 21 -79 42 -149 46 -155 3 -7 24 54 46 134 41 156 46
169 62 164 5 -2 -2 -43 -18 -99 -16 -52 -38 -128 -50 -167 -33 -113 -47 -103
-94 66 -21 77 -42 145 -46 151 -4 6 -26 -57 -50 -139 -57 -202 -62 -202 -124
12 -51 178 -52 181 -34 175 7 -3 30 -68 52 -146z m626 133 c0 -12 -16 -15 -85
-15 l-85 0 0 -60 0 -60 80 0 c64 0 80 -3 80 -15 0 -12 -16 -15 -80 -15 l-80 0
0 -65 0 -65 90 0 c73 0 90 -3 90 -15 0 -12 -18 -15 -105 -15 l-105 0 0 170 0
170 100 0 c82 0 100 -3 100 -15z m287 -140 c78 -186 78 -185 60 -185 -9 0 -23
20 -33 45 l-17 45 -92 0 -93 0 -19 -45 c-10 -25 -24 -45 -30 -45 -7 0 -13 3
-13 6 0 3 32 80 72 171 51 117 75 163 86 161 9 -2 41 -65 79 -153z m303 140
c0 -12 -13 -15 -60 -15 l-60 0 0 -155 c0 -131 -2 -155 -15 -155 -13 0 -15 24
-15 155 l0 155 -55 0 c-42 0 -55 3 -55 15 0 13 21 15 130 15 109 0 130 -2 130
-15z m80 -60 l0 -75 95 0 95 0 0 75 c0 60 3 75 15 75 13 0 15 -26 15 -170 0
-144 -2 -170 -15 -170 -12 0 -15 16 -15 80 l0 80 -95 0 -95 0 0 -80 c0 -64 -3
-80 -15 -80 -13 0 -15 26 -15 170 0 144 2 170 15 170 12 0 15 -15 15 -75z
m510 60 c0 -12 -16 -15 -85 -15 l-85 0 0 -60 0 -60 80 0 c64 0 80 -3 80 -15 0
-12 -16 -15 -80 -15 l-80 0 0 -65 0 -65 90 0 c73 0 90 -3 90 -15 0 -12 -18
-15 -105 -15 l-105 0 0 170 0 170 100 0 c82 0 100 -3 100 -15z m202 5 c43 -12
58 -34 58 -84 0 -38 -28 -76 -54 -76 -28 0 -24 -17 19 -86 48 -75 52 -84 32
-84 -7 0 -34 36 -60 80 -43 71 -51 80 -78 80 l-29 0 0 -80 c0 -64 -3 -80 -15
-80 -13 0 -15 26 -15 170 l0 170 53 0 c28 0 69 -5 89 -10z m-1850 -790 c43
-12 58 -34 58 -84 0 -38 -28 -76 -54 -76 -28 0 -24 -17 19 -86 48 -75 52 -84
32 -84 -7 0 -34 36 -60 80 -43 71 -51 80 -78 80 l-29 0 0 -80 c0 -64 -3 -80
-15 -80 -13 0 -15 26 -15 170 l0 170 53 0 c28 0 69 -5 89 -10z m328 -5 c0 -12
-16 -15 -85 -15 l-85 0 0 -60 0 -60 80 0 c64 0 80 -3 80 -15 0 -12 -16 -15
-80 -15 l-80 0 0 -65 0 -65 90 0 c73 0 90 -3 90 -15 0 -12 -18 -15 -105 -15
l-105 0 0 170 0 170 100 0 c82 0 100 -3 100 -15z m245 -15 c34 -32 34 -88 0
-120 -19 -18 -40 -25 -85 -28 l-60 -4 0 -79 c0 -64 -3 -79 -15 -79 -13 0 -15
26 -15 171 l0 172 75 -5 c61 -4 80 -9 100 -28z m339 2 c51 -30 76 -77 76 -142
0 -101 -66 -165 -170 -165 -103 0 -170 64 -170 162 0 83 32 131 107 159 46 17
114 11 157 -14z m288 18 c43 -12 58 -34 58 -84 0 -38 -28 -76 -54 -76 -28 0
-24 -17 19 -86 48 -75 52 -84 32 -84 -7 0 -34 36 -60 80 -43 71 -51 80 -78 80
l-29 0 0 -80 c0 -64 -3 -80 -15 -80 -13 0 -15 26 -15 170 l0 170 53 0 c28 0
69 -5 89 -10z m358 -5 c0 -12 -13 -15 -60 -15 l-60 0 0 -155 c0 -131 -2 -155
-15 -155 -13 0 -15 24 -15 155 l0 155 -55 0 c-42 0 -55 3 -55 15 0 13 21 15
130 15 109 0 130 -2 130 -15z"/>
<path d="M1011 1319 c-5 -13 -21 -50 -35 -83 -14 -32 -26 -62 -26 -67 0 -5 34
-9 75 -9 41 0 75 3 75 6 0 10 -63 159 -71 168 -5 5 -12 -1 -18 -15z"/>
<path d="M2090 1290 l0 -60 55 0 c60 0 95 22 95 60 0 38 -35 60 -95 60 l-55 0
0 -60z"/>
<path d="M240 500 l0 -60 55 0 c60 0 95 22 95 60 0 38 -35 60 -95 60 l-55 0 0
-60z"/>
<path d="M780 500 l0 -60 53 0 c60 0 87 19 87 62 0 39 -29 58 -88 58 l-52 0 0
-60z"/>
<path d="M1093 540 c-18 -10 -40 -31 -49 -46 -23 -35 -23 -113 0 -148 57 -87
195 -87 252 0 23 35 23 113 0 148 -41 64 -138 86 -203 46z"/>
<path d="M1440 500 l0 -60 55 0 c60 0 95 22 95 60 0 38 -35 60 -95 60 l-55 0
0 -60z"/>
</g>
</svg>
